{"title":"Angels Crest (2011) DVDSCR XviD-BBnRG","uid":6868828,"size":1466328917,"categoryP":"video","categoryS":"movies","magnet":"?xt=urn:btih:e1a70426a69329af9d61f0b6de829f08b62cf6c7&amp;dn=Angels+Crest+%282011%29+DVDSCR+XviD-BBnRG&amp;tr=udp%3A%2F%2Ftracker.openbittorrent.com%3A80&amp;tr=udp%3A%2F%2Fopen.demonii.com%3A1337&amp;tr=udp%3A%2F%2Ftracker.coppersurfer.tk%3A6969&amp;tr=udp%3A%2F%2Fexodus.desync.com%3A6969","seeders":0,"leechers":0,"uploader":"TvTeam","files":4,"time":1323204396,"description":".\n &lt;a href=&quot;\nhttp://www.torrenting.com&quot; rel=&quot;nofollow&quot; target=&quot;_NEW&quot;&gt;\nhttp://www.torrenting.com&lt;/a&gt;          :     Once &amp; For all ;)\n\n\n               www . Torrenting . Com \n\n(((((((((((((= Enjoy No RAR releases =))))))))))))))))))))\n\n\n...................................NFO:....................................\n\n.Another Fine Release Brought to you from -\n===================================================================================================\nBBBBBBBBBBBBBBBBB   BBBBBBBBBBBBBBBBB                     RRRRRRRRRRRRRRRRR           GGGGGGGGGGGGG\nB::::::::::::::::B  B::::::::::::::::B                    R::::::::::::::::R       GGG::::::::::::G\nB::::::BBBBBB:::::B B::::::BBBBBB:::::B                   R::::::RRRRRR:::::R    GG:::::::::::::::G\nBB:::::B     B:::::BBB:::::B     B:::::B                  RR:::::R     R:::::R  G:::::GGGGGGGG::::G\n  B::::B     B:::::B  B::::B     B:::::Bnnnn  nnnnnnnn      R::::R     R:::::R G:::::G       GGGGGG\n  B::::B     B:::::B  B::::B     B:::::Bn:::nn::::::::nn    R::::R     R:::::RG:::::G              \n  B::::BBBBBB:::::B   B::::BBBBBB:::::B n::::::::::::::nn   R::::RRRRRR:::::R G:::::G              \n  B:::::::::::::BB    B:::::::::::::BB  nn:::::::::::::::n  R:::::::::::::RR  G:::::G    GGGGGGGGGG\n  B::::BBBBBB:::::B   B::::BBBBBB:::::B   n:::::nnnn:::::n  R::::RRRRRR:::::R G:::::G    G::::::::G\n  B::::B     B:::::B  B::::B     B:::::B  n::::n    n::::n  R::::R     R:::::RG:::::G    GGGGG::::G\n  B::::B     B:::::B  B::::B     B:::::B  n::::n    n::::n  R::::R     R:::::RG:::::G        G::::G\n  B::::B     B:::::B  B::::B     B:::::B  n::::n    n::::n  R::::R     R:::::R G:::::G       G::::G\nBB:::::BBBBBB::::::BBB:::::BBBBBB::::::B  n::::n    n::::nRR:::::R     R:::::R  G:::::GGGGGGGG::::G\nB:::::::::::::::::B B:::::::::::::::::B   n::::n    n::::nR::::::R     R:::::R   GG:::::::::::::::G\nB::::::::::::::::B  B::::::::::::::::B    n::::n    n::::nR::::::R     R:::::R     GGG::::::GGG:::G\nBBBBBBBBBBBBBBBBB   BBBBBBBBBBBBBBBBB     nnnnnn    nnnnnnRRRRRRRR     RRRRRRR        GGGGGG   GGGG\n===================================================================================================\n                          Angels Crest (2011) DVDSCR XviD BBnRG\n===================================================================================================\n\n ___     _                    ___       __    \n| _ \\___| |___ __ _ ___ ___  |_ _|_ _  / _|___\n|   / -_) / -_) _` (_-&lt;/ -_)  | || ' \\|  _/ _ \\\n|_|_\\___|_\\___\\__,_/__/\\___| |___|_||_|_| \\___/\n===================================================================================================\nComplete name                    : Angels Crest (2011) DVDSCR XviD BBnRG.avi\nFormat                           : AVI\nFormat/Info                      : Audio Video Interleave\nFile size                        : 1.37 GiB\nDuration                         : 1h 33mn\nOverall bit rate                 : 2 094 Kbps\n\nVideo\nID                               : 0\nFormat                           : MPEG-4 Visual\nFormat profile                   : Advanced Simple@L5\nFormat settings, BVOP            : 2\nFormat settings, QPel            : No\nFormat settings, GMC             : No warppoints\nFormat settings, Matrix          : Default (H.263)\nCodec ID                         : XVID\nCodec ID/Hint                    : XviD\nDuration                         : 1h 33mn\nBit rate                         : 1 703 Kbps\nWidth                            : 640 pixels\nHeight                           : 272 pixels\nDisplay aspect ratio             : 2.35:1\nFrame rate                       : 23.976 fps\nColor space                      : YUV\nChroma subsampling               : 4:2:0\nBit depth                        : 8 bits\nScan type                        : Progressive\nCompression mode                 : Lossy\nBits/(Pixel*Frame)               : 0.408\nStream size                      : 1.11 GiB (81%)\nWriting library                  : XviD 1.2.1 (UTC 2008-12-04)\n\nAudio\nID                               : 1\nFormat                           : AC-3\nFormat/Info                      : Audio Coding 3\nMode extension                   : CM (complete main)\nCodec ID                         : 2000\nDuration                         : 1h 33mn\nBit rate mode                    : Constant\nBit rate                         : 384 Kbps\nChannel(s)                       : 6 channels\nChannel positions                : Front: L C R, Side: L R, LFE\nSampling rate                    : 48.0 KHz\nBit depth                        : 16 bits\nCompression mode                 : Lossy\nStream size                      : 256 MiB (18%)\nAlignment                        : Aligned on interleaves\nInterleave, duration             : 64 ms (1.53 video frames)\nInterleave, preload duration     : 192 ms\n\n ___     _                    ___                 _      _   _          \n| _ \\___| |___ __ _ ___ ___  |   \\ ___ ___ __ _ _(_)_ __| |_(_)___ _ _  \n|   / -_) / -_) _` (_-&lt;/ -_) | |) / -_|_-&lt;/ _| '_| | '_ \\  _| / _ \\ ' \\\n|_|_\\___|_\\___\\__,_/__/\\___| |___/\\___/__/\\__|_| |_| .__/\\__|_\\___/_||_|\n                                                   |_|                  \n===================================================================================================\n92 min  -  Drama   -  30 December 2011 (USA)\n\nDuring the first snow of the year 3 year-old Nate Denton wanders away from his father's truck \nand disappears. The fevered search for him ends with the devastating discover of his tiny, \nfrozen body. Nate's death throws the small foothills community of Angel's Crest into disarray. \nThe inhabitants confront what Nate's death means to them and in the face of that struggle they \ndeal with their own concepts of right and wrong.\n\nIMDb Link:http://www.imdb.com/title/tt1559040/\n  ___                     _  _     _          \n / __|_ _ ___ _  _ _ __  | \\| |___| |_ ___ ___\n| (_ | '_/ _ \\ || | '_ \\ | .` / _ \\  _/ -_|_-&lt;\n \\___|_| \\___/\\_,_| .__/ |_|\\_\\___/\\__\\___/__/\n                  |_|                        \n===================================================================================================\nEncoder:   FridayToker \nSource(s): FTW (thanks)   \n\nAnother fine release from BBnRG\n\nWe aim to bring the best \n\n  ___             _      \n / __|_ _ ___ ___| |_ ___\n| (_ | '_/ -_) -_)  _|_ /\n \\___|_| \\___\\___|\\__/__|\n===================================================================================================\nNiCkkkDoN, Hive-CM8, DiVERSiTY, ViSiON, CrEwSaDe, INF1N1TY, 3LT0N, T0XiC, *THC*, TWiZTED, BBRG, \nBHRG, PECKO, CRYS, SC0RN, DEFACED, AMiABLE, KiNGDOM, aAF, MOUMENTUM, UnKnOwN, FreaK, FLAWL3SS, \nBDK, SMSB, ViP3R, EMBER, LKRG, LTRG, MXMG, Rx, MASSiVE, TaRiQ786, Jucified, RippeR, cOOkies, \nEXViD, TDP, VoMiT, PRESTiGE &amp; to all other p2p groups out there....","torrent":{"xt":"urn:btih:e1a70426a69329af9d61f0b6de829f08b62cf6c7","amp;dn":"Angels+Crest+%282011%29+DVDSCR+XviD-BBnRG","amp;tr":["udp%3A%2F%2Ftracker.openbittorrent.com%3A80","udp%3A%2F%2Fopen.demonii.com%3A1337","udp%3A%2F%2Ftracker.coppersurfer.tk%3A6969","udp%3A%2F%2Fexodus.desync.com%3A6969"],"infoHash":"e1a70426a69329af9d61f0b6de829f08b62cf6c7","infoHashBuffer":{"type":"Buffer","data":[225,167,4,38,166,147,41,175,157,97,240,182,222,130,159,8,182,44,246,199]},"announce":[],"urlList":[]}}